<?xml version="1.0" standalone="no"?>
<!DOCTYPE svg PUBLIC "-//W3C//DTD SVG 20010904//EN"
 "http://www.w3.org/TR/2001/REC-SVG-20010904/DTD/svg10.dtd">
<svg version="1.0" xmlns="http://www.w3.org/2000/svg"
 width="494.000000pt" height="494.000000pt" viewBox="0 0 494.000000 494.000000"
 preserveAspectRatio="xMidYMid meet">
<metadata>
Created by potrace 1.14, written by Peter Selinger 2001-2017
</metadata>
<g transform="translate(0.000000,494.000000) scale(0.100000,-0.100000)"
fill="#000000" stroke="none">
<path d="M901 3306 l-901 -901 0 -838 0 -837 438 0 437 0 0 212 0 213 -222 3
-221 2 0 533 0 532 685 686 685 686 179 -180 c99 -98 179 -181 177 -183 -2 -2
-188 -189 -415 -417 l-412 -413 0 -837 1 -837 1137 0 1136 0 0 836 0 836 -416
417 -417 417 178 177 c97 97 181 177 186 177 5 0 316 -307 690 -682 l681 -683
-1 -530 -1 -530 -242 -3 -243 -2 0 -215 0 -215 458 0 458 0 -1 839 0 840 -900
900 -900 901 -334 -334 -334 -335 -332 333 -333 334 -901 -902z m1938 -748
l336 -336 -1 -524 c-1 -287 -2 -526 -3 -530 0 -5 -317 -8 -704 -8 l-703 0 1
534 0 533 350 351 c335 335 351 350 369 334 10 -10 170 -168 355 -354z"/>
</g>
</svg>
